<?xml version="1.0" ?><svg width="512px" height="512px" viewBox="0 0 512 512" id="_x30_1" style="enable-background:new 0 0 512 512;" version="1.1" xml:space="preserve" xmlns="http://www.w3.org/2000/svg" xmlns:xlink="http://www.w3.org/1999/xlink"><g><path d="M113,0L113,0c62.408,0,113,50.592,113,113v0c0,62.408-50.592,113-113,113h0C50.592,226,0,175.408,0,113v0   C0,50.592,50.592,0,113,0z"/><path d="M399,0L399,0c62.408,0,113,50.592,113,113v0c0,62.408-50.592,113-113,113h0c-62.408,0-113-50.592-113-113v0   C286,50.592,336.592,0,399,0z"/><path d="M113,286L113,286c62.408,0,113,50.592,113,113v0c0,62.408-50.592,113-113,113h0C50.592,512,0,461.408,0,399v0   C0,336.592,50.592,286,113,286z"/><path d="M399,286L399,286c62.408,0,113,50.592,113,113v0c0,62.408-50.592,113-113,113h0c-62.408,0-113-50.592-113-113v0   C286,336.592,336.592,286,399,286z"/></g></svg>